<svg xmlns="http://www.w3.org/2000/svg" width="159.85" height="206.91" viewBox="0 0 159.85 206.91">
  <defs>
    <style>
      .a {
        fill: #7acec3;
      }
    </style>
  </defs>
  <title>DSGN</title>
  <g>
    <path class="a" d="M160.22,5.55a5.59,5.59,0,0,1,.35,2.84q0,97.94,0,195.87c0,.25,0,.5,0,.75,0,2.47,0,2.49-2.39,2.49H3.93c-.5,0-1,0-1.49,0-.93-.07-.9-.55-.43-1.15,2.73-3.44,5.48-6.86,8.2-10.31a2.57,2.57,0,0,1,2.38-1c.66,0,1.33,0,2,0H144.4a13.93,13.93,0,0,1,1.74,0c1.56.2,2.14-.47,1.95-2a11.8,11.8,0,0,1,0-1.49q0-83-.05-166a11.34,11.34,0,0,1,2.81-8.13C154.1,13.71,157,9.68,160.22,5.55Z" transform="translate(-1.68 -0.6)"/>
    <path class="a" d="M150.35,15.75c-.39-3.18-.39-3.18-3.14-3.18H17.64c-.58,0-1.16,0-1.74,0-1,0-1.36.41-1.32,1.35,0,.66,0,1.33,0,2q0,83.73.07,167.45c0,3.29-.66,6-2.93,8.3-2.89,3-5.15,6.47-7.74,9.68-.39.48-.7,1.31-1.51,1s-.33-1-.38-1.56,0-1,0-1.49q0-97.55,0-195.11c0-.25,0-.5,0-.75C2.08.68,2.08.67,4.72.67l154.49,0a1.37,1.37,0,0,1,.25,0c.69.13,1.68-.39,2,.42S161,2.39,160.52,3C157.23,7.11,153.94,11.24,150.35,15.75Z" transform="translate(-1.68 -0.6)"/>
    <path class="a" d="M98.65,130.46a4.3,4.3,0,0,0-.29,2.54q0,23.42,0,46.85c0,2.63,0,2.64-2.54,2.65-2.33,0-4.65,0-7,0-1.17,0-1.7-.41-1.59-1.6,0-.41,0-.83,0-1.25q0-34.26,0-68.53c0-2.86,0-2.86,2.8-2.87,3.16,0,6.32.09,9.47,0a2.62,2.62,0,0,1,2.92,2c3.72,9.58,7.5,19.13,11.26,28.69q3.91,9.95,7.84,19.89a2.46,2.46,0,0,0,1.17,1.59c0-.93,0-1.7,0-2.47q0-23.42,0-46.85c0-2.8,0-2.8,2.86-2.8,2.08,0,4.16.07,6.23,0,1.43-.06,2,.5,1.83,1.89a9,9,0,0,0,0,1q0,34.14,0,68.28c0,3.09,0,3.09-3.19,3.09-2.74,0-5.49-.1-8.22,0-1.87.09-2.77-.6-3.47-2.37-6.53-16.48-13.16-32.92-19.76-49.37C99,130.73,98.9,130.68,98.65,130.46Z" transform="translate(-1.68 -0.6)"/>
    <path class="a" d="M37.51,62.07q0-17.19,0-34.37c0-2.62,0-2.63,2.53-2.64,5.73,0,11.46,0,17.19,0C69,25.16,78,31.61,82,42.72c3.34,9.2,3.42,18.65,2.49,28.21a37.54,37.54,0,0,1-5.42,16.61c-4.93,7.87-12.4,11.24-21.32,11.67-6,.29-12,0-17.93.11-1.87,0-2.38-.52-2.37-2.38C37.55,85.32,37.51,73.69,37.51,62.07ZM50,61.95c0,7.05,0,14.11,0,21.16,0,6-1,5.17,5.29,5.19,6,0,10.44-2.67,13.37-7.91A28,28,0,0,0,72,69.8c.93-8.06.93-16.06-2.2-23.72-2-4.93-5.4-8.5-10.8-9.76A29.44,29.44,0,0,0,52.57,36c-2.45,0-2.52.06-2.52,2.5Q50,50.25,50,61.95Z" transform="translate(-1.68 -0.6)"/>
    <path class="a" d="M41.43,139.89a48.23,48.23,0,0,0,1,11.4,2.55,2.55,0,0,1-.61,2.3c-2.39,3-4.71,6-7.08,9-1.07,1.35-1.4,1.28-2.1-.44A55.66,55.66,0,0,1,29,147.48a60.81,60.81,0,0,1,1.66-23.39c2.32-8.48,6.5-15.76,14.55-20.2,8.36-4.61,21-2.89,27.77,3.83,2.32,2.32,2.31,2.6.26,5q-1.93,2.27-3.73,4.65c-1,1.31-1.77,1.64-3,.16a12.43,12.43,0,0,0-9.89-4.36c-4.23,0-7.27,2-9.65,5.19-2.87,3.9-4.18,8.42-4.92,13.12A40.77,40.77,0,0,0,41.43,139.89Z" transform="translate(-1.68 -0.6)"/>
    <path class="a" d="M73.89,159.36c0,5.48-.07,11,0,16.44a3.63,3.63,0,0,1-2.05,3.57A30.65,30.65,0,0,1,47.52,183c-7.15-1.81-12.08-6.62-15.55-13a1.74,1.74,0,0,1,.24-2.23c2.35-2.89,4.63-5.84,6.94-8.77.31-.39.6-.88,1.17-.78s.58.71.72,1.18c1.31,4.35,3.1,8.39,7,11.11s9.29,2.33,13.06.56a2.37,2.37,0,0,0,1.35-2.44c0-5.23-.06-10.46,0-15.69,0-1.48-.61-1.85-1.94-1.8-1.82.08-3.65,0-5.48,0-1.19,0-1.61-.47-1.59-1.63.05-2.41.06-4.82,0-7.22,0-1.46.49-2.1,2-2.09,5.56.05,11.13.06,16.69,0,1.53,0,1.76.68,1.75,2C73.87,147.91,73.89,153.64,73.89,159.36Z" transform="translate(-1.68 -0.6)"/>
    <path class="a" d="M109.11,105.88A26.28,26.28,0,0,1,91.28,99.4c-1.77-1.45-1.81-1.81-.48-3.68s2.71-3.76,4.12-5.6c1.3-1.68,1.47-1.66,3.07-.2a15.66,15.66,0,0,0,12.21,4.51,7.76,7.76,0,0,0,4.73-1.93c4.4-3.87,4.56-11.78.34-15.84a29.3,29.3,0,0,0-5.87-4.15c-1.05-.6-1.21-1.08-.38-2.07,1.86-2.22,3.62-4.53,5.39-6.82a1.68,1.68,0,0,1,2.49-.62c7.15,3.83,12.45,9.08,13.57,17.52,1.2,9.1-2.84,19.6-11.95,23.62A20.25,20.25,0,0,1,109.11,105.88Z" transform="translate(-1.68 -0.6)"/>
    <path class="a" d="M106.7,45.08a8.46,8.46,0,0,0,4.08,8.2A38.23,38.23,0,0,0,116,56.58c1.05.49,1.43,1,.62,2.05-1.91,2.4-3.79,4.82-5.69,7.22a1.49,1.49,0,0,1-2,.4c-6.05-2.93-11.32-6.73-13.43-13.51-3.42-11,.36-24.82,13.37-28.63a23.48,23.48,0,0,1,22.81,4.72c1.11.93,1.21,1.75.24,2.92-1.68,2-3.25,4.18-4.78,6.35-.79,1.12-1.32.81-2.13,0a12.26,12.26,0,0,0-10.94-3.48c-4.67.81-7.27,4.06-7.4,8.88C106.69,44,106.7,44.39,106.7,45.08Z" transform="translate(-1.68 -0.6)"/>
  </g>
</svg>
