<svg xmlns="http://www.w3.org/2000/svg" width="27" height="22" viewBox="0 0 27 22">
  <metadata><?xpacket begin="﻿" id="W5M0MpCehiHzreSzNTczkc9d"?>
<x:xmpmeta xmlns:x="adobe:ns:meta/" x:xmptk="Adobe XMP Core 5.6-c138 79.159824, 2016/09/14-01:09:01        ">
   <rdf:RDF xmlns:rdf="http://www.w3.org/1999/02/22-rdf-syntax-ns#">
      <rdf:Description rdf:about=""/>
   </rdf:RDF>
</x:xmpmeta>
                                                                                                    
                                                                                                    
                                                                                                    
                                                                                                    
                                                                                                    
                                                                                                    
                                                                                                    
                                                                                                    
                                                                                                    
                                                                                                    
                                                                                                    
                                                                                                    
                                                                                                    
                                                                                                    
                                                                                                    
                                                                                                    
                                                                                                    
                                                                                                    
                                                                                                    
                                                                                                    
                           
<?xpacket end="w"?></metadata>
<defs>
    <style>
      .cls-1 {
        fill: #7bcbc1;
        fill-rule: evenodd;
      }
    </style>
  </defs>
  <path id="google_green" class="cls-1" d="M271.606,420.476l-1.541.9h-1.54a3.984,3.984,0,0,1,1.7,3.367c0,3.025-2.556,3.253-2.556,4.76,0,1.472,3.424,2.054,3.424,5.25a4.2,4.2,0,0,1-1.6,3.219,7.283,7.283,0,0,1-4.794,1.5c-2.134,0-5.216-.913-5.216-3.561a3.5,3.5,0,0,1,.422-1.541c1.016-2.054,4.189-2.579,6.232-2.636a2.9,2.9,0,0,1-.73-1.7,2.97,2.97,0,0,1,.251-0.982,6.475,6.475,0,0,1-.8.057,3.994,3.994,0,0,1-4.132-3.926,4.729,4.729,0,0,1,3.755-4.474,10.224,10.224,0,0,1,2.134-.229h4.988Zm-4.782,11.962a4.741,4.741,0,0,0-.571-0.023c-1.872,0-4.657.594-4.657,2.968,0,2.191,2.466,3.036,4.292,3.036,1.7,0,3.6-.685,3.6-2.682C269.483,434.139,267.988,433.249,266.824,432.438Zm-1.758-11.14c-1.495,0-2.226,1.324-2.226,2.671,0,1.735,1.142,4.451,3.174,4.451,1.563,0,2.1-1.13,2.1-2.522C268.114,424.163,267.178,421.3,265.066,421.3Zm13.411,3.561h-2.921v2.922H274.1v-2.922h-2.922V423.4H274.1v-2.922h1.461V423.4h2.921v1.461Z" transform="translate(-255.484 -418.969)"/>
</svg>
