<svg xmlns="http://www.w3.org/2000/svg" width="24" height="21.031" viewBox="0 0 24 21.031">
  <metadata><?xpacket begin="﻿" id="W5M0MpCehiHzreSzNTczkc9d"?>
<x:xmpmeta xmlns:x="adobe:ns:meta/" x:xmptk="Adobe XMP Core 5.6-c138 79.159824, 2016/09/14-01:09:01        ">
   <rdf:RDF xmlns:rdf="http://www.w3.org/1999/02/22-rdf-syntax-ns#">
      <rdf:Description rdf:about=""/>
   </rdf:RDF>
</x:xmpmeta>
                                                                                                    
                                                                                                    
                                                                                                    
                                                                                                    
                                                                                                    
                                                                                                    
                                                                                                    
                                                                                                    
                                                                                                    
                                                                                                    
                                                                                                    
                                                                                                    
                                                                                                    
                                                                                                    
                                                                                                    
                                                                                                    
                                                                                                    
                                                                                                    
                                                                                                    
                                                                                                    
                           
<?xpacket end="w"?></metadata>
<defs>
    <style>
      .cls-1 {
        fill: #333;
        fill-rule: evenodd;
      }
    </style>
  </defs>
  <path id="heart" class="cls-1" d="M635.207,874.3L624.981,885l-10.225-10.7a6.1,6.1,0,0,1,0-8.562,5.956,5.956,0,0,1,8.48,0l1.745,2.14,1.746-2.14a5.956,5.956,0,0,1,8.48,0A6.1,6.1,0,0,1,635.207,874.3Zm-6.489-8.212-3.741,3.3-2.741-3.3a4.77,4.77,0,0,0-7.2,1c-1.13,1.712-1.436,3.84,0,5.3L624.977,883l9.941-10.611a3.8,3.8,0,0,0,0-5.3C633.482,865.62,630.154,864.62,628.718,866.085Z" transform="translate(-613 -863.969)"/>
</svg>
