<svg xmlns="http://www.w3.org/2000/svg" width="27" height="22" viewBox="0 0 27 22">
  <metadata><?xpacket begin="﻿" id="W5M0MpCehiHzreSzNTczkc9d"?>
<x:xmpmeta xmlns:x="adobe:ns:meta/" x:xmptk="Adobe XMP Core 5.6-c138 79.159824, 2016/09/14-01:09:01        ">
   <rdf:RDF xmlns:rdf="http://www.w3.org/1999/02/22-rdf-syntax-ns#">
      <rdf:Description rdf:about=""/>
   </rdf:RDF>
</x:xmpmeta>
                                                                                                    
                                                                                                    
                                                                                                    
                                                                                                    
                                                                                                    
                                                                                                    
                                                                                                    
                                                                                                    
                                                                                                    
                                                                                                    
                                                                                                    
                                                                                                    
                                                                                                    
                                                                                                    
                                                                                                    
                                                                                                    
                                                                                                    
                                                                                                    
                                                                                                    
                                                                                                    
                           
<?xpacket end="w"?></metadata>
<defs>
    <style>
      .cls-1 {
        fill: #7bcbc1;
        fill-rule: evenodd;
      }
    </style>
  </defs>
  <path id="in_green" class="cls-1" d="M221.637,423.623h-0.031a2.56,2.56,0,0,1-2.746-2.563,2.587,2.587,0,0,1,2.807-2.562A2.572,2.572,0,1,1,221.637,423.623Zm2.489,16.871h-4.979V425.645h4.979v14.849Zm17.911,0h-4.964v-7.941c0-1.993-.724-3.356-2.52-3.356A2.719,2.719,0,0,0,232,431a3.681,3.681,0,0,0-.166,1.213v8.286h-4.964c0.06-13.455,0-14.849,0-14.849h4.964V427.8h-0.03a4.932,4.932,0,0,1,4.511-2.5c3.275,0,5.719,2.127,5.719,6.683v8.51Z" transform="translate(-216.953 -418.5)"/>
</svg>
