<svg xmlns="http://www.w3.org/2000/svg" width="27" height="22" viewBox="0 0 27 22">
  <metadata><?xpacket begin="﻿" id="W5M0MpCehiHzreSzNTczkc9d"?>
<x:xmpmeta xmlns:x="adobe:ns:meta/" x:xmptk="Adobe XMP Core 5.6-c138 79.159824, 2016/09/14-01:09:01        ">
   <rdf:RDF xmlns:rdf="http://www.w3.org/1999/02/22-rdf-syntax-ns#">
      <rdf:Description rdf:about=""/>
   </rdf:RDF>
</x:xmpmeta>
                                                                                                    
                                                                                                    
                                                                                                    
                                                                                                    
                                                                                                    
                                                                                                    
                                                                                                    
                                                                                                    
                                                                                                    
                                                                                                    
                                                                                                    
                                                                                                    
                                                                                                    
                                                                                                    
                                                                                                    
                                                                                                    
                                                                                                    
                                                                                                    
                                                                                                    
                                                                                                    
                           
<?xpacket end="w"?></metadata>
<defs>
    <style>
      .cls-1 {
        fill: #7bcbc1;
        fill-rule: evenodd;
      }
    </style>
  </defs>
  <path id="twitter_green" class="cls-1" d="M200.376,422.727c0.017,0.23.017,0.46,0.017,0.69a15.081,15.081,0,0,1-15.3,15.082,15.353,15.353,0,0,1-8.258-2.38,11.1,11.1,0,0,0,1.3.066,10.867,10.867,0,0,0,6.676-2.265,5.378,5.378,0,0,1-5.028-3.676,6.929,6.929,0,0,0,1.016.082,5.751,5.751,0,0,0,1.415-.18,5.322,5.322,0,0,1-4.312-5.2v-0.066a5.479,5.479,0,0,0,2.431.673,5.278,5.278,0,0,1-2.4-4.414,5.209,5.209,0,0,1,.732-2.676,15.359,15.359,0,0,0,11.088,5.548,5.926,5.926,0,0,1-.133-1.215,5.337,5.337,0,0,1,5.378-5.3,5.4,5.4,0,0,1,3.929,1.674,10.7,10.7,0,0,0,3.413-1.28,5.3,5.3,0,0,1-2.364,2.921,10.909,10.909,0,0,0,3.1-.82A11.446,11.446,0,0,1,200.376,422.727Z" transform="translate(-176.453 -417)"/>
</svg>
